<svg width="260" height="132" viewBox="0 0 260 132" fill="none" xmlns="http://www.w3.org/2000/svg">
  <g opacity="0.5" filter="url(#filter0_f_6_5984)">
    <path fill-rule="evenodd" clip-rule="evenodd" d="M116.832 65.0621C143.407 63.9789 164.936 77.2869 187.352 88.1973C220.092 104.132 269.704 112.507 274.578 141.838C279.481 171.346 240.729 195.014 207.758 211.001C181.041 223.956 148.179 221.836 116.832 218.328C91.049 215.442 70.0078 205.226 49.2306 193.26C23.2815 178.315 -17.0366 166.583 -15.9796 141.838C-14.9217 117.072 27.5484 108.647 53.4853 93.6534C73.8072 81.9057 91.3443 66.1009 116.832 65.0621Z" fill="url(#paint0_linear_6_5984)"/>
  </g>
  <defs>
    <filter id="filter0_f_6_5984" x="-81" y="0" width="421" height="286" filterUnits="userSpaceOnUse" color-interpolation-filters="sRGB">
      <feFlood flood-opacity="0" result="BackgroundImageFix"/>
      <feBlend mode="normal" in="SourceGraphic" in2="BackgroundImageFix" result="shape"/>
      <feGaussianBlur stdDeviation="32.5" result="effect1_foregroundBlur_6_5984"/>
    </filter>
    <linearGradient id="paint0_linear_6_5984" x1="208.427" y1="208.856" x2="-19.0349" y2="127.366" gradientUnits="userSpaceOnUse">
      <stop stop-color="#87F696"/>
      <stop offset="0.28125" stop-color="#00FFFF"/>
      <stop offset="0.697144" stop-color="#9C16EF"/>
      <stop offset="1" stop-color="#4200FF"/>
    </linearGradient>
  </defs>
</svg>